<mxfile host="app.diagrams.net" modified="2022-02-22T14:37:39.777Z" agent="5.0 (Windows NT 10.0; Win64; x64) AppleWebKit/537.36 (KHTML, like Gecko) Chrome/98.0.4758.81 Safari/537.36" etag="WWPK8eeitiaFOgTjyt_V" version="16.6.2" type="github">
  <diagram id="0OFCpZ8kLnsrzTdWg-T6" name="Page-1">
    <mxGraphModel dx="1258" dy="785" grid="1" gridSize="10" guides="1" tooltips="1" connect="1" arrows="1" fold="1" page="1" pageScale="1" pageWidth="827" pageHeight="1169" math="0" shadow="0">
      <root>
        <mxCell id="0" />
        <mxCell id="1" parent="0" />
        <mxCell id="3OuX7e_3EuSiUwNeDTlv-1" value="Start" style="rounded=1;whiteSpace=wrap;html=1;fillColor=#d5e8d4;strokeColor=#82b366;" parent="1" vertex="1">
          <mxGeometry x="300" y="40" width="120" height="60" as="geometry" />
        </mxCell>
        <mxCell id="kYWJKbM5e78tgMv8RS4h-1" value="" style="endArrow=classic;html=1;rounded=0;" edge="1" parent="1" source="3OuX7e_3EuSiUwNeDTlv-1" target="kYWJKbM5e78tgMv8RS4h-2">
          <mxGeometry width="50" height="50" relative="1" as="geometry">
            <mxPoint x="390" y="350" as="sourcePoint" />
            <mxPoint x="360" y="150" as="targetPoint" />
          </mxGeometry>
        </mxCell>
        <mxCell id="kYWJKbM5e78tgMv8RS4h-2" value="Read n" style="shape=parallelogram;perimeter=parallelogramPerimeter;whiteSpace=wrap;html=1;fixedSize=1;" vertex="1" parent="1">
          <mxGeometry x="300" y="120" width="120" height="60" as="geometry" />
        </mxCell>
        <mxCell id="kYWJKbM5e78tgMv8RS4h-3" value="" style="endArrow=classic;html=1;rounded=0;exitX=0.5;exitY=1;exitDx=0;exitDy=0;" edge="1" parent="1" source="kYWJKbM5e78tgMv8RS4h-2" target="kYWJKbM5e78tgMv8RS4h-4">
          <mxGeometry width="50" height="50" relative="1" as="geometry">
            <mxPoint x="390" y="350" as="sourcePoint" />
            <mxPoint x="360" y="220" as="targetPoint" />
          </mxGeometry>
        </mxCell>
        <mxCell id="kYWJKbM5e78tgMv8RS4h-5" style="edgeStyle=orthogonalEdgeStyle;rounded=0;orthogonalLoop=1;jettySize=auto;html=1;exitX=0.5;exitY=1;exitDx=0;exitDy=0;" edge="1" parent="1" source="kYWJKbM5e78tgMv8RS4h-4">
          <mxGeometry relative="1" as="geometry">
            <mxPoint x="360" y="280" as="targetPoint" />
          </mxGeometry>
        </mxCell>
        <mxCell id="kYWJKbM5e78tgMv8RS4h-4" value="i = 2" style="rounded=0;whiteSpace=wrap;html=1;" vertex="1" parent="1">
          <mxGeometry x="300" y="200" width="120" height="60" as="geometry" />
        </mxCell>
        <mxCell id="kYWJKbM5e78tgMv8RS4h-9" style="edgeStyle=orthogonalEdgeStyle;rounded=0;orthogonalLoop=1;jettySize=auto;html=1;exitX=1;exitY=0.5;exitDx=0;exitDy=0;entryX=0.5;entryY=0;entryDx=0;entryDy=0;" edge="1" parent="1" source="kYWJKbM5e78tgMv8RS4h-7" target="kYWJKbM5e78tgMv8RS4h-24">
          <mxGeometry relative="1" as="geometry">
            <mxPoint x="530" y="500" as="targetPoint" />
            <Array as="points">
              <mxPoint x="555" y="345" />
              <mxPoint x="555" y="600" />
            </Array>
          </mxGeometry>
        </mxCell>
        <mxCell id="kYWJKbM5e78tgMv8RS4h-7" value="i &amp;lt; n" style="rhombus;whiteSpace=wrap;html=1;" vertex="1" parent="1">
          <mxGeometry x="295" y="280" width="130" height="130" as="geometry" />
        </mxCell>
        <mxCell id="kYWJKbM5e78tgMv8RS4h-11" value="" style="endArrow=classic;html=1;rounded=0;exitX=0.5;exitY=1;exitDx=0;exitDy=0;" edge="1" parent="1" source="kYWJKbM5e78tgMv8RS4h-7">
          <mxGeometry width="50" height="50" relative="1" as="geometry">
            <mxPoint x="300" y="480" as="sourcePoint" />
            <mxPoint x="360" y="480" as="targetPoint" />
          </mxGeometry>
        </mxCell>
        <mxCell id="kYWJKbM5e78tgMv8RS4h-12" value="Yes" style="text;html=1;align=center;verticalAlign=middle;resizable=0;points=[];autosize=1;strokeColor=none;fillColor=none;rotation=0;" vertex="1" parent="1">
          <mxGeometry x="320" y="430" width="30" height="20" as="geometry" />
        </mxCell>
        <mxCell id="kYWJKbM5e78tgMv8RS4h-14" value="No" style="text;html=1;align=center;verticalAlign=middle;resizable=0;points=[];autosize=1;strokeColor=none;fillColor=none;" vertex="1" parent="1">
          <mxGeometry x="500" y="330" width="30" height="20" as="geometry" />
        </mxCell>
        <mxCell id="kYWJKbM5e78tgMv8RS4h-15" value="n%i == 0" style="rhombus;whiteSpace=wrap;html=1;" vertex="1" parent="1">
          <mxGeometry x="295" y="454" width="130" height="130" as="geometry" />
        </mxCell>
        <mxCell id="kYWJKbM5e78tgMv8RS4h-16" value="i = i+1" style="rounded=0;whiteSpace=wrap;html=1;" vertex="1" parent="1">
          <mxGeometry x="305" y="660" width="120" height="60" as="geometry" />
        </mxCell>
        <mxCell id="kYWJKbM5e78tgMv8RS4h-17" value="" style="endArrow=classic;html=1;rounded=0;exitX=0.5;exitY=1;exitDx=0;exitDy=0;entryX=0.455;entryY=-0.007;entryDx=0;entryDy=0;entryPerimeter=0;" edge="1" parent="1" source="kYWJKbM5e78tgMv8RS4h-15" target="kYWJKbM5e78tgMv8RS4h-16">
          <mxGeometry width="50" height="50" relative="1" as="geometry">
            <mxPoint x="359.64" y="600" as="sourcePoint" />
            <mxPoint x="360" y="630" as="targetPoint" />
          </mxGeometry>
        </mxCell>
        <mxCell id="kYWJKbM5e78tgMv8RS4h-18" value="Yes" style="text;html=1;align=center;verticalAlign=middle;resizable=0;points=[];autosize=1;strokeColor=none;fillColor=none;rotation=0;" vertex="1" parent="1">
          <mxGeometry x="450" y="520" width="30" height="20" as="geometry" />
        </mxCell>
        <mxCell id="kYWJKbM5e78tgMv8RS4h-20" value="No" style="text;html=1;align=center;verticalAlign=middle;resizable=0;points=[];autosize=1;strokeColor=none;fillColor=none;" vertex="1" parent="1">
          <mxGeometry x="320" y="620" width="30" height="20" as="geometry" />
        </mxCell>
        <mxCell id="kYWJKbM5e78tgMv8RS4h-21" value="" style="endArrow=classic;html=1;rounded=0;exitX=1;exitY=0.5;exitDx=0;exitDy=0;" edge="1" parent="1" source="kYWJKbM5e78tgMv8RS4h-15">
          <mxGeometry width="50" height="50" relative="1" as="geometry">
            <mxPoint x="375" y="560" as="sourcePoint" />
            <mxPoint x="550" y="520" as="targetPoint" />
          </mxGeometry>
        </mxCell>
        <mxCell id="kYWJKbM5e78tgMv8RS4h-24" value="i == n" style="rhombus;whiteSpace=wrap;html=1;" vertex="1" parent="1">
          <mxGeometry x="490" y="630" width="130" height="130" as="geometry" />
        </mxCell>
        <mxCell id="kYWJKbM5e78tgMv8RS4h-25" value="" style="endArrow=classic;html=1;rounded=0;exitX=1.233;exitY=1.458;exitDx=0;exitDy=0;exitPerimeter=0;startArrow=none;" edge="1" parent="1" source="kYWJKbM5e78tgMv8RS4h-28">
          <mxGeometry width="50" height="50" relative="1" as="geometry">
            <mxPoint x="200" y="530" as="sourcePoint" />
            <mxPoint x="450" y="840" as="targetPoint" />
            <Array as="points">
              <mxPoint x="450" y="704" />
            </Array>
          </mxGeometry>
        </mxCell>
        <mxCell id="kYWJKbM5e78tgMv8RS4h-26" value="" style="endArrow=classic;html=1;rounded=0;startArrow=none;" edge="1" parent="1">
          <mxGeometry width="50" height="50" relative="1" as="geometry">
            <mxPoint x="670" y="695" as="sourcePoint" />
            <mxPoint x="670" y="846" as="targetPoint" />
            <Array as="points">
              <mxPoint x="670" y="695" />
            </Array>
          </mxGeometry>
        </mxCell>
        <mxCell id="kYWJKbM5e78tgMv8RS4h-27" value="print n is a prime" style="rounded=0;whiteSpace=wrap;html=1;" vertex="1" parent="1">
          <mxGeometry x="390" y="840" width="120" height="60" as="geometry" />
        </mxCell>
        <mxCell id="kYWJKbM5e78tgMv8RS4h-28" value="Yes" style="text;html=1;align=center;verticalAlign=middle;resizable=0;points=[];autosize=1;strokeColor=none;fillColor=none;rotation=0;" vertex="1" parent="1">
          <mxGeometry x="460" y="670" width="30" height="20" as="geometry" />
        </mxCell>
        <mxCell id="kYWJKbM5e78tgMv8RS4h-29" value="" style="endArrow=none;html=1;rounded=0;exitX=0.015;exitY=0.571;exitDx=0;exitDy=0;exitPerimeter=0;" edge="1" parent="1" source="kYWJKbM5e78tgMv8RS4h-24" target="kYWJKbM5e78tgMv8RS4h-28">
          <mxGeometry width="50" height="50" relative="1" as="geometry">
            <mxPoint x="491.95000000000005" y="704.23" as="sourcePoint" />
            <mxPoint x="450" y="840" as="targetPoint" />
            <Array as="points" />
          </mxGeometry>
        </mxCell>
        <mxCell id="kYWJKbM5e78tgMv8RS4h-30" value="No" style="text;html=1;align=center;verticalAlign=middle;resizable=0;points=[];autosize=1;strokeColor=none;fillColor=none;rotation=0;" vertex="1" parent="1">
          <mxGeometry x="630" y="670" width="30" height="20" as="geometry" />
        </mxCell>
        <mxCell id="kYWJKbM5e78tgMv8RS4h-31" value="" style="endArrow=none;html=1;rounded=0;exitX=1;exitY=0.5;exitDx=0;exitDy=0;" edge="1" parent="1" source="kYWJKbM5e78tgMv8RS4h-24">
          <mxGeometry width="50" height="50" relative="1" as="geometry">
            <mxPoint x="620" y="695" as="sourcePoint" />
            <mxPoint x="680" y="695" as="targetPoint" />
            <Array as="points" />
          </mxGeometry>
        </mxCell>
        <mxCell id="kYWJKbM5e78tgMv8RS4h-32" value="print n is not a prime" style="rounded=0;whiteSpace=wrap;html=1;" vertex="1" parent="1">
          <mxGeometry x="610" y="840" width="120" height="60" as="geometry" />
        </mxCell>
        <mxCell id="kYWJKbM5e78tgMv8RS4h-33" value="End" style="rounded=1;whiteSpace=wrap;html=1;fillColor=#f8cecc;strokeColor=#b85450;" vertex="1" parent="1">
          <mxGeometry x="500" y="940" width="120" height="60" as="geometry" />
        </mxCell>
      </root>
    </mxGraphModel>
  </diagram>
</mxfile>
